# xmcd
#
# Track frame offsets:
#	150
#	18346
#	41554
#	69768
#	83835
#	107563
#	120984
#	134492
#	157314
#
# Disc length: 2466 seconds
#
# Revision: 0
# Processed by: cddbd v1.5.1PL2 Copyright (c) Steve Scherf et al.
# Submitted via: dBpowerAMP V4.0
#
DISCID=6d09a009
DTITLE=Sanhedrin - Sanhedrin
DYEAR=1900
DGENRE=Blues
TTITLE0=Blues in a bottle
TTITLE1=Down in Mississippi
TTITLE2=No more doggin'
TTITLE3=Big Bill
TTITLE4=I'm in the mood
TTITLE5=D.Z. thang
TTITLE6=Stop breakin' down
TTITLE7=Me and the devil
TTITLE8=Hellhound on my trail
EXTD=
EXTT0=
EXTT1=
EXTT2=
EXTT3=
EXTT4=
EXTT5=
EXTT6=
EXTT7=
EXTT8=
PLAYORDER=
